<svg xmlns="http://www.w3.org/2000/svg" viewBox="0 0 100 100">
  <!-- Monochrome filled Scout for status-bar $(scout-outline). VS Code themes it white. -->
  <path fill="#000" d="M22 48Q18 24 50 20Q80 22 82 46Q84 58 68 64Q50 69 34 63Q20 58 22 48Z"/>
  <ellipse fill="#000" cx="50" cy="22" rx="9" ry="5.5"/>
  <path fill="#000" fill-rule="evenodd" d="M35 28a12 12 0 1 1 0 24a12 12 0 1 1 0-24zm0 3.5a8.5 8.5 0 1 0 0 17a8.5 8.5 0 1 0 0-17z"/>
  <path fill="#000" fill-rule="evenodd" d="M65 28a12 12 0 1 1 0 24a12 12 0 1 1 0-24zm0 3.5a8.5 8.5 0 1 0 0 17a8.5 8.5 0 1 0 0-17z"/>
  <ellipse fill="#000" cx="35" cy="40" rx="2.8" ry="7.5"/>
  <ellipse fill="#000" cx="65" cy="40" rx="2.8" ry="7.5"/>
  <path fill="none" stroke="#000" stroke-width="2.6" stroke-linecap="round" d="M42 56Q50 61 58 56"/>
</svg>
