<svg xmlns="http://www.w3.org/2000/svg" viewBox="0 0 100 100" fill="none">
  <rect width="100" height="100" rx="22" fill="#080C0B"/>
  <!-- Scout bust — same mascot as SiteLogo; vertical-slit pupils are the gecko tell
       (frogs never have them), kept big and high-contrast for 16px taskbar legibility. -->
  <path d="M 22 48 Q 18 24 50 20 Q 80 22 82 46 Q 84 58 68 64 Q 50 69 34 63 Q 20 58 22 48 Z"
        fill="#34D399"/>
  <ellipse cx="50" cy="22" rx="9" ry="5.5" fill="#34D399"/>
  <ellipse cx="35" cy="40" rx="13" ry="14" fill="#06251C"/>
  <ellipse cx="65" cy="40" rx="13" ry="14" fill="#06251C"/>
  <circle cx="35" cy="40" r="9.5" fill="#FACC15"/>
  <circle cx="65" cy="40" r="9.5" fill="#FACC15"/>
  <ellipse cx="35" cy="40" rx="3.4" ry="8.5" fill="#06251C"/>
  <ellipse cx="65" cy="40" rx="3.4" ry="8.5" fill="#06251C"/>
  <circle cx="31" cy="34" r="2.4" fill="white" opacity="0.95"/>
  <circle cx="61" cy="34" r="2.4" fill="white" opacity="0.95"/>
  <path d="M 42 56 Q 50 61 58 56" stroke="#06251C" stroke-width="2.6" stroke-linecap="round" fill="none" opacity="0.6"/>
  <circle cx="46" cy="20.5" r="1.4" fill="#06251C" opacity="0.5"/>
  <circle cx="54" cy="20.5" r="1.4" fill="#06251C" opacity="0.5"/>
</svg>
